<mxfile host="app.diagrams.net" modified="2024-03-06T13:54:35.806Z" agent="Mozilla/5.0 (X11; Linux x86_64; rv:122.0) Gecko/20100101 Firefox/122.0" etag="89mmdiNLcb8GlqQT0EhU" version="24.0.2" type="github">
  <diagram name="Página-1" id="hJb06Rk799BU0b4kOH_D">
    <mxGraphModel dx="2739" dy="2113" grid="1" gridSize="10" guides="1" tooltips="1" connect="1" arrows="1" fold="1" page="1" pageScale="1" pageWidth="827" pageHeight="1169" math="0" shadow="0">
      <root>
        <mxCell id="0" />
        <mxCell id="1" parent="0" />
        <mxCell id="ciBfCnPS4qrGMpkKh46U-2" value="&lt;div&gt;Livro&lt;/div&gt;" style="rounded=1;whiteSpace=wrap;html=1;" vertex="1" parent="1">
          <mxGeometry x="354" y="320" width="120" height="60" as="geometry" />
        </mxCell>
        <mxCell id="ciBfCnPS4qrGMpkKh46U-13" value="" style="edgeStyle=orthogonalEdgeStyle;rounded=0;orthogonalLoop=1;jettySize=auto;html=1;exitX=0.75;exitY=0;exitDx=0;exitDy=0;" edge="1" parent="1" source="ciBfCnPS4qrGMpkKh46U-3" target="ciBfCnPS4qrGMpkKh46U-9">
          <mxGeometry relative="1" as="geometry">
            <Array as="points">
              <mxPoint x="170" y="80" />
              <mxPoint x="170" y="45" />
              <mxPoint x="175" y="45" />
            </Array>
          </mxGeometry>
        </mxCell>
        <mxCell id="ciBfCnPS4qrGMpkKh46U-17" style="edgeStyle=orthogonalEdgeStyle;rounded=0;orthogonalLoop=1;jettySize=auto;html=1;exitX=0.25;exitY=0;exitDx=0;exitDy=0;entryX=0.5;entryY=1;entryDx=0;entryDy=0;" edge="1" parent="1" source="ciBfCnPS4qrGMpkKh46U-3" target="ciBfCnPS4qrGMpkKh46U-14">
          <mxGeometry relative="1" as="geometry">
            <Array as="points">
              <mxPoint x="140" y="80" />
              <mxPoint x="140" y="45" />
              <mxPoint x="105" y="45" />
            </Array>
          </mxGeometry>
        </mxCell>
        <mxCell id="ciBfCnPS4qrGMpkKh46U-18" style="edgeStyle=orthogonalEdgeStyle;rounded=0;orthogonalLoop=1;jettySize=auto;html=1;exitX=0;exitY=0;exitDx=0;exitDy=0;entryX=0.5;entryY=1;entryDx=0;entryDy=0;" edge="1" parent="1" source="ciBfCnPS4qrGMpkKh46U-3" target="ciBfCnPS4qrGMpkKh46U-16">
          <mxGeometry relative="1" as="geometry">
            <Array as="points">
              <mxPoint x="100" y="80" />
              <mxPoint x="100" y="45" />
              <mxPoint x="35" y="45" />
            </Array>
          </mxGeometry>
        </mxCell>
        <mxCell id="ciBfCnPS4qrGMpkKh46U-19" style="edgeStyle=orthogonalEdgeStyle;rounded=0;orthogonalLoop=1;jettySize=auto;html=1;exitX=1;exitY=0;exitDx=0;exitDy=0;entryX=0.5;entryY=1;entryDx=0;entryDy=0;" edge="1" parent="1" source="ciBfCnPS4qrGMpkKh46U-3" target="ciBfCnPS4qrGMpkKh46U-15">
          <mxGeometry relative="1" as="geometry">
            <Array as="points">
              <mxPoint x="200" y="80" />
              <mxPoint x="200" y="45" />
              <mxPoint x="245" y="45" />
            </Array>
          </mxGeometry>
        </mxCell>
        <mxCell id="ciBfCnPS4qrGMpkKh46U-3" value="Autor" style="rounded=1;whiteSpace=wrap;html=1;" vertex="1" parent="1">
          <mxGeometry x="90" y="80" width="120" height="60" as="geometry" />
        </mxCell>
        <mxCell id="ciBfCnPS4qrGMpkKh46U-24" style="edgeStyle=orthogonalEdgeStyle;rounded=0;orthogonalLoop=1;jettySize=auto;html=1;" edge="1" parent="1" source="ciBfCnPS4qrGMpkKh46U-4" target="ciBfCnPS4qrGMpkKh46U-20">
          <mxGeometry relative="1" as="geometry" />
        </mxCell>
        <mxCell id="ciBfCnPS4qrGMpkKh46U-4" value="Exemplar" style="rounded=1;whiteSpace=wrap;html=1;" vertex="1" parent="1">
          <mxGeometry x="620" y="80" width="120" height="60" as="geometry" />
        </mxCell>
        <mxCell id="ciBfCnPS4qrGMpkKh46U-41" style="edgeStyle=orthogonalEdgeStyle;rounded=0;orthogonalLoop=1;jettySize=auto;html=1;exitX=0;exitY=0;exitDx=0;exitDy=0;entryX=0.5;entryY=1;entryDx=0;entryDy=0;" edge="1" parent="1" source="ciBfCnPS4qrGMpkKh46U-5" target="ciBfCnPS4qrGMpkKh46U-37">
          <mxGeometry relative="1" as="geometry" />
        </mxCell>
        <mxCell id="ciBfCnPS4qrGMpkKh46U-42" style="edgeStyle=orthogonalEdgeStyle;rounded=0;orthogonalLoop=1;jettySize=auto;html=1;exitX=0.25;exitY=0;exitDx=0;exitDy=0;" edge="1" parent="1" source="ciBfCnPS4qrGMpkKh46U-5" target="ciBfCnPS4qrGMpkKh46U-38">
          <mxGeometry relative="1" as="geometry" />
        </mxCell>
        <mxCell id="ciBfCnPS4qrGMpkKh46U-43" style="edgeStyle=orthogonalEdgeStyle;rounded=0;orthogonalLoop=1;jettySize=auto;html=1;exitX=0.75;exitY=0;exitDx=0;exitDy=0;entryX=0.5;entryY=1;entryDx=0;entryDy=0;" edge="1" parent="1" source="ciBfCnPS4qrGMpkKh46U-5" target="ciBfCnPS4qrGMpkKh46U-39">
          <mxGeometry relative="1" as="geometry" />
        </mxCell>
        <mxCell id="ciBfCnPS4qrGMpkKh46U-44" style="edgeStyle=orthogonalEdgeStyle;rounded=0;orthogonalLoop=1;jettySize=auto;html=1;exitX=1;exitY=0;exitDx=0;exitDy=0;entryX=0.5;entryY=1;entryDx=0;entryDy=0;" edge="1" parent="1" source="ciBfCnPS4qrGMpkKh46U-5" target="ciBfCnPS4qrGMpkKh46U-40">
          <mxGeometry relative="1" as="geometry" />
        </mxCell>
        <mxCell id="ciBfCnPS4qrGMpkKh46U-5" value="Usuario" style="rounded=1;whiteSpace=wrap;html=1;" vertex="1" parent="1">
          <mxGeometry x="-210" y="320" width="120" height="60" as="geometry" />
        </mxCell>
        <mxCell id="ciBfCnPS4qrGMpkKh46U-30" style="edgeStyle=orthogonalEdgeStyle;rounded=0;orthogonalLoop=1;jettySize=auto;html=1;exitX=0;exitY=0;exitDx=0;exitDy=0;entryX=0.5;entryY=1;entryDx=0;entryDy=0;" edge="1" parent="1" source="ciBfCnPS4qrGMpkKh46U-6" target="ciBfCnPS4qrGMpkKh46U-21">
          <mxGeometry relative="1" as="geometry" />
        </mxCell>
        <mxCell id="ciBfCnPS4qrGMpkKh46U-31" style="edgeStyle=orthogonalEdgeStyle;rounded=0;orthogonalLoop=1;jettySize=auto;html=1;exitX=0.25;exitY=0;exitDx=0;exitDy=0;entryX=0.5;entryY=1;entryDx=0;entryDy=0;" edge="1" parent="1" source="ciBfCnPS4qrGMpkKh46U-6" target="ciBfCnPS4qrGMpkKh46U-25">
          <mxGeometry relative="1" as="geometry" />
        </mxCell>
        <mxCell id="ciBfCnPS4qrGMpkKh46U-32" style="edgeStyle=orthogonalEdgeStyle;rounded=0;orthogonalLoop=1;jettySize=auto;html=1;exitX=0.75;exitY=0;exitDx=0;exitDy=0;entryX=0.5;entryY=1;entryDx=0;entryDy=0;" edge="1" parent="1" source="ciBfCnPS4qrGMpkKh46U-6" target="ciBfCnPS4qrGMpkKh46U-27">
          <mxGeometry relative="1" as="geometry" />
        </mxCell>
        <mxCell id="ciBfCnPS4qrGMpkKh46U-33" style="edgeStyle=orthogonalEdgeStyle;rounded=0;orthogonalLoop=1;jettySize=auto;html=1;exitX=1;exitY=0;exitDx=0;exitDy=0;entryX=0.5;entryY=1;entryDx=0;entryDy=0;" edge="1" parent="1" source="ciBfCnPS4qrGMpkKh46U-6" target="ciBfCnPS4qrGMpkKh46U-26">
          <mxGeometry relative="1" as="geometry" />
        </mxCell>
        <mxCell id="ciBfCnPS4qrGMpkKh46U-6" value="Editora" style="rounded=1;whiteSpace=wrap;html=1;" vertex="1" parent="1">
          <mxGeometry x="620" y="320" width="120" height="60" as="geometry" />
        </mxCell>
        <mxCell id="ciBfCnPS4qrGMpkKh46U-36" style="edgeStyle=orthogonalEdgeStyle;rounded=0;orthogonalLoop=1;jettySize=auto;html=1;exitX=0.5;exitY=1;exitDx=0;exitDy=0;entryX=0.5;entryY=0;entryDx=0;entryDy=0;" edge="1" parent="1" source="ciBfCnPS4qrGMpkKh46U-7" target="ciBfCnPS4qrGMpkKh46U-35">
          <mxGeometry relative="1" as="geometry" />
        </mxCell>
        <mxCell id="ciBfCnPS4qrGMpkKh46U-7" value="&lt;div&gt;Funcionários&lt;/div&gt;" style="rounded=1;whiteSpace=wrap;html=1;" vertex="1" parent="1">
          <mxGeometry x="-210" y="540" width="120" height="60" as="geometry" />
        </mxCell>
        <mxCell id="ciBfCnPS4qrGMpkKh46U-47" style="edgeStyle=orthogonalEdgeStyle;rounded=0;orthogonalLoop=1;jettySize=auto;html=1;exitX=0.25;exitY=1;exitDx=0;exitDy=0;" edge="1" parent="1" source="ciBfCnPS4qrGMpkKh46U-8" target="ciBfCnPS4qrGMpkKh46U-45">
          <mxGeometry relative="1" as="geometry" />
        </mxCell>
        <mxCell id="ciBfCnPS4qrGMpkKh46U-48" style="edgeStyle=orthogonalEdgeStyle;rounded=0;orthogonalLoop=1;jettySize=auto;html=1;exitX=0.75;exitY=1;exitDx=0;exitDy=0;entryX=0.5;entryY=0;entryDx=0;entryDy=0;" edge="1" parent="1" source="ciBfCnPS4qrGMpkKh46U-8" target="ciBfCnPS4qrGMpkKh46U-46">
          <mxGeometry relative="1" as="geometry" />
        </mxCell>
        <mxCell id="ciBfCnPS4qrGMpkKh46U-8" value="Palavra-chave" style="rounded=1;whiteSpace=wrap;html=1;" vertex="1" parent="1">
          <mxGeometry x="620" y="555" width="120" height="60" as="geometry" />
        </mxCell>
        <mxCell id="ciBfCnPS4qrGMpkKh46U-9" value="&lt;div&gt;&lt;font color=&quot;#ffffff&quot;&gt;códi&lt;/font&gt;&lt;/div&gt;&lt;div&gt;&lt;font color=&quot;#ffffff&quot;&gt;go&lt;br&gt;&lt;/font&gt;&lt;/div&gt;" style="ellipse;whiteSpace=wrap;html=1;rounded=1;fillColor=#000000;" vertex="1" parent="1">
          <mxGeometry x="160" y="-20" width="30" height="30" as="geometry" />
        </mxCell>
        <mxCell id="ciBfCnPS4qrGMpkKh46U-14" value="&lt;div&gt;tele&lt;/div&gt;&lt;div&gt;fone&lt;/div&gt;" style="ellipse;whiteSpace=wrap;html=1;rounded=1;" vertex="1" parent="1">
          <mxGeometry x="90" y="-20" width="30" height="30" as="geometry" />
        </mxCell>
        <mxCell id="ciBfCnPS4qrGMpkKh46U-15" value="&lt;div&gt;ende&lt;/div&gt;&lt;div&gt;reço&lt;br&gt;&lt;/div&gt;" style="ellipse;whiteSpace=wrap;html=1;rounded=1;" vertex="1" parent="1">
          <mxGeometry x="230" y="-20" width="30" height="30" as="geometry" />
        </mxCell>
        <mxCell id="ciBfCnPS4qrGMpkKh46U-16" value="nome" style="ellipse;whiteSpace=wrap;html=1;rounded=1;" vertex="1" parent="1">
          <mxGeometry x="20" y="-20" width="30" height="30" as="geometry" />
        </mxCell>
        <mxCell id="ciBfCnPS4qrGMpkKh46U-20" value="&lt;div&gt;&lt;font color=&quot;#ffffff&quot;&gt;códi&lt;/font&gt;&lt;/div&gt;&lt;div&gt;&lt;font color=&quot;#ffffff&quot;&gt;go&lt;br&gt;&lt;/font&gt;&lt;/div&gt;" style="ellipse;whiteSpace=wrap;html=1;rounded=1;fillColor=#000000;" vertex="1" parent="1">
          <mxGeometry x="665" y="-20" width="30" height="30" as="geometry" />
        </mxCell>
        <mxCell id="ciBfCnPS4qrGMpkKh46U-21" value="nome" style="ellipse;whiteSpace=wrap;html=1;rounded=1;" vertex="1" parent="1">
          <mxGeometry x="580" y="220" width="30" height="30" as="geometry" />
        </mxCell>
        <mxCell id="ciBfCnPS4qrGMpkKh46U-25" value="&lt;div&gt;telefo&lt;/div&gt;&lt;div&gt;ne&lt;br&gt;&lt;/div&gt;" style="ellipse;whiteSpace=wrap;html=1;rounded=1;" vertex="1" parent="1">
          <mxGeometry x="635" y="220" width="30" height="30" as="geometry" />
        </mxCell>
        <mxCell id="ciBfCnPS4qrGMpkKh46U-26" value="&lt;div&gt;ende&lt;/div&gt;&lt;div&gt;reço&lt;br&gt;&lt;/div&gt;" style="ellipse;whiteSpace=wrap;html=1;rounded=1;" vertex="1" parent="1">
          <mxGeometry x="760" y="220" width="30" height="30" as="geometry" />
        </mxCell>
        <mxCell id="ciBfCnPS4qrGMpkKh46U-27" value="&lt;div&gt;&lt;font color=&quot;#ffffff&quot;&gt;códi&lt;/font&gt;&lt;/div&gt;&lt;div&gt;&lt;font color=&quot;#ffffff&quot;&gt;go&lt;br&gt;&lt;/font&gt;&lt;/div&gt;" style="ellipse;whiteSpace=wrap;html=1;rounded=1;fillColor=#000000;" vertex="1" parent="1">
          <mxGeometry x="695" y="220" width="30" height="30" as="geometry" />
        </mxCell>
        <mxCell id="ciBfCnPS4qrGMpkKh46U-35" value="&lt;div&gt;&lt;font color=&quot;#ffffff&quot;&gt;SIA&lt;/font&gt;&lt;/div&gt;&lt;div&gt;&lt;font color=&quot;#ffffff&quot;&gt;PE&lt;br&gt;&lt;/font&gt;&lt;/div&gt;" style="ellipse;whiteSpace=wrap;html=1;rounded=1;fillColor=#000000;" vertex="1" parent="1">
          <mxGeometry x="-165" y="680" width="30" height="30" as="geometry" />
        </mxCell>
        <mxCell id="ciBfCnPS4qrGMpkKh46U-37" value="nome" style="ellipse;whiteSpace=wrap;html=1;rounded=1;" vertex="1" parent="1">
          <mxGeometry x="-280" y="230" width="30" height="30" as="geometry" />
        </mxCell>
        <mxCell id="ciBfCnPS4qrGMpkKh46U-38" value="&lt;div&gt;&lt;font color=&quot;#ffffff&quot;&gt;prontu&lt;/font&gt;&lt;/div&gt;&lt;div&gt;&lt;font color=&quot;#ffffff&quot;&gt;ario&lt;br&gt;&lt;/font&gt;&lt;/div&gt;" style="ellipse;whiteSpace=wrap;html=1;rounded=1;fillColor=#000000;" vertex="1" parent="1">
          <mxGeometry x="-210" y="230" width="30" height="30" as="geometry" />
        </mxCell>
        <mxCell id="ciBfCnPS4qrGMpkKh46U-39" value="&lt;div&gt;ende&lt;/div&gt;&lt;div&gt;reço&lt;br&gt;&lt;/div&gt;" style="ellipse;whiteSpace=wrap;html=1;rounded=1;" vertex="1" parent="1">
          <mxGeometry x="-127" y="230" width="30" height="30" as="geometry" />
        </mxCell>
        <mxCell id="ciBfCnPS4qrGMpkKh46U-40" value="&lt;div&gt;telefo&lt;/div&gt;&lt;div&gt;ne&lt;/div&gt;" style="ellipse;whiteSpace=wrap;html=1;rounded=1;" vertex="1" parent="1">
          <mxGeometry x="-90" y="230" width="30" height="30" as="geometry" />
        </mxCell>
        <mxCell id="ciBfCnPS4qrGMpkKh46U-45" value="&lt;div&gt;&lt;font color=&quot;#ffffff&quot;&gt;códi&lt;/font&gt;&lt;/div&gt;&lt;div&gt;&lt;font color=&quot;#ffffff&quot;&gt;go&lt;/font&gt;&lt;br&gt;&lt;/div&gt;" style="ellipse;whiteSpace=wrap;html=1;rounded=1;fillColor=#000000;" vertex="1" parent="1">
          <mxGeometry x="630" y="670" width="30" height="30" as="geometry" />
        </mxCell>
        <mxCell id="ciBfCnPS4qrGMpkKh46U-46" value="&lt;div&gt;descri&lt;/div&gt;&lt;div&gt;çao&lt;br&gt;&lt;/div&gt;" style="ellipse;whiteSpace=wrap;html=1;rounded=1;" vertex="1" parent="1">
          <mxGeometry x="700" y="670" width="30" height="30" as="geometry" />
        </mxCell>
        <mxCell id="ciBfCnPS4qrGMpkKh46U-51" value="" style="rhombus;whiteSpace=wrap;html=1;" vertex="1" parent="1">
          <mxGeometry x="520" y="330" width="46" height="40" as="geometry" />
        </mxCell>
        <mxCell id="ciBfCnPS4qrGMpkKh46U-52" value="" style="rhombus;whiteSpace=wrap;html=1;rotation=0;" vertex="1" parent="1">
          <mxGeometry x="-173" y="440" width="46" height="40" as="geometry" />
        </mxCell>
        <mxCell id="ciBfCnPS4qrGMpkKh46U-53" value="" style="rhombus;whiteSpace=wrap;html=1;" vertex="1" parent="1">
          <mxGeometry x="260" y="330" width="46" height="40" as="geometry" />
        </mxCell>
        <mxCell id="ciBfCnPS4qrGMpkKh46U-55" value="" style="rhombus;whiteSpace=wrap;html=1;rotation=60;" vertex="1" parent="1">
          <mxGeometry x="521" y="445" width="45" height="45" as="geometry" />
        </mxCell>
        <mxCell id="ciBfCnPS4qrGMpkKh46U-56" value="" style="endArrow=none;html=1;rounded=0;exitX=0;exitY=0;exitDx=0;exitDy=0;entryX=0.924;entryY=0.321;entryDx=0;entryDy=0;entryPerimeter=0;" edge="1" parent="1" source="ciBfCnPS4qrGMpkKh46U-8" target="ciBfCnPS4qrGMpkKh46U-55">
          <mxGeometry width="50" height="50" relative="1" as="geometry">
            <mxPoint x="560" y="550" as="sourcePoint" />
            <mxPoint x="560" y="490" as="targetPoint" />
          </mxGeometry>
        </mxCell>
        <mxCell id="ciBfCnPS4qrGMpkKh46U-57" value="" style="endArrow=none;html=1;rounded=0;entryX=1;entryY=1;entryDx=0;entryDy=0;exitX=0;exitY=0.5;exitDx=0;exitDy=0;" edge="1" parent="1" source="ciBfCnPS4qrGMpkKh46U-55" target="ciBfCnPS4qrGMpkKh46U-2">
          <mxGeometry width="50" height="50" relative="1" as="geometry">
            <mxPoint x="474" y="445" as="sourcePoint" />
            <mxPoint x="524" y="395" as="targetPoint" />
          </mxGeometry>
        </mxCell>
        <mxCell id="ciBfCnPS4qrGMpkKh46U-58" value="" style="endArrow=none;html=1;rounded=0;entryX=0;entryY=0.5;entryDx=0;entryDy=0;exitX=1;exitY=0.5;exitDx=0;exitDy=0;" edge="1" parent="1" source="ciBfCnPS4qrGMpkKh46U-2" target="ciBfCnPS4qrGMpkKh46U-51">
          <mxGeometry width="50" height="50" relative="1" as="geometry">
            <mxPoint x="470" y="390" as="sourcePoint" />
            <mxPoint x="520" y="340" as="targetPoint" />
          </mxGeometry>
        </mxCell>
        <mxCell id="ciBfCnPS4qrGMpkKh46U-59" value="" style="endArrow=none;html=1;rounded=0;entryX=0;entryY=0.5;entryDx=0;entryDy=0;exitX=1;exitY=0.5;exitDx=0;exitDy=0;" edge="1" parent="1" source="ciBfCnPS4qrGMpkKh46U-51">
          <mxGeometry width="50" height="50" relative="1" as="geometry">
            <mxPoint x="574" y="349.5" as="sourcePoint" />
            <mxPoint x="620" y="349.5" as="targetPoint" />
          </mxGeometry>
        </mxCell>
        <mxCell id="ciBfCnPS4qrGMpkKh46U-60" value="" style="endArrow=none;html=1;rounded=0;entryX=0;entryY=0.5;entryDx=0;entryDy=0;exitX=1;exitY=0.5;exitDx=0;exitDy=0;" edge="1" parent="1" source="ciBfCnPS4qrGMpkKh46U-53" target="ciBfCnPS4qrGMpkKh46U-2">
          <mxGeometry width="50" height="50" relative="1" as="geometry">
            <mxPoint x="308" y="349.5" as="sourcePoint" />
            <mxPoint x="354" y="349.5" as="targetPoint" />
          </mxGeometry>
        </mxCell>
        <mxCell id="ciBfCnPS4qrGMpkKh46U-61" value="" style="endArrow=none;html=1;rounded=0;exitX=1;exitY=0.5;exitDx=0;exitDy=0;entryX=0;entryY=0.5;entryDx=0;entryDy=0;" edge="1" parent="1" target="ciBfCnPS4qrGMpkKh46U-53">
          <mxGeometry width="50" height="50" relative="1" as="geometry">
            <mxPoint x="210" y="349.5" as="sourcePoint" />
            <mxPoint x="240" y="350" as="targetPoint" />
          </mxGeometry>
        </mxCell>
        <mxCell id="ciBfCnPS4qrGMpkKh46U-62" value="" style="endArrow=none;html=1;rounded=0;entryX=0.5;entryY=1;entryDx=0;entryDy=0;" edge="1" parent="1" source="ciBfCnPS4qrGMpkKh46U-52" target="ciBfCnPS4qrGMpkKh46U-5">
          <mxGeometry width="50" height="50" relative="1" as="geometry">
            <mxPoint x="193" y="468" as="sourcePoint" />
            <mxPoint x="135" y="400" as="targetPoint" />
          </mxGeometry>
        </mxCell>
        <mxCell id="ciBfCnPS4qrGMpkKh46U-63" value="" style="endArrow=none;html=1;rounded=0;entryX=0.5;entryY=1;entryDx=0;entryDy=0;" edge="1" parent="1" source="ciBfCnPS4qrGMpkKh46U-7" target="ciBfCnPS4qrGMpkKh46U-52">
          <mxGeometry width="50" height="50" relative="1" as="geometry">
            <mxPoint x="149.5" y="560" as="sourcePoint" />
            <mxPoint x="149.5" y="490" as="targetPoint" />
          </mxGeometry>
        </mxCell>
        <mxCell id="ciBfCnPS4qrGMpkKh46U-64" value="" style="rhombus;whiteSpace=wrap;html=1;rotation=45;" vertex="1" parent="1">
          <mxGeometry x="520" y="175" width="45" height="45" as="geometry" />
        </mxCell>
        <mxCell id="ciBfCnPS4qrGMpkKh46U-65" value="" style="endArrow=none;html=1;rounded=0;entryX=0.5;entryY=1;entryDx=0;entryDy=0;exitX=1;exitY=0;exitDx=0;exitDy=0;" edge="1" parent="1" source="ciBfCnPS4qrGMpkKh46U-2" target="ciBfCnPS4qrGMpkKh46U-64">
          <mxGeometry width="50" height="50" relative="1" as="geometry">
            <mxPoint x="521" y="283" as="sourcePoint" />
            <mxPoint x="463" y="215" as="targetPoint" />
          </mxGeometry>
        </mxCell>
        <mxCell id="ciBfCnPS4qrGMpkKh46U-66" value="" style="endArrow=none;html=1;rounded=0;entryX=0;entryY=0.5;entryDx=0;entryDy=0;exitX=0.5;exitY=0;exitDx=0;exitDy=0;" edge="1" parent="1" source="ciBfCnPS4qrGMpkKh46U-64" target="ciBfCnPS4qrGMpkKh46U-4">
          <mxGeometry width="50" height="50" relative="1" as="geometry">
            <mxPoint x="565" y="187" as="sourcePoint" />
            <mxPoint x="618" y="80" as="targetPoint" />
          </mxGeometry>
        </mxCell>
        <mxCell id="ciBfCnPS4qrGMpkKh46U-67" value="" style="rhombus;whiteSpace=wrap;html=1;rotation=45;" vertex="1" parent="1">
          <mxGeometry x="270" y="185" width="45" height="45" as="geometry" />
        </mxCell>
        <mxCell id="ciBfCnPS4qrGMpkKh46U-68" value="" style="endArrow=none;html=1;rounded=0;entryX=1;entryY=0.5;entryDx=0;entryDy=0;exitX=0;exitY=0;exitDx=0;exitDy=0;" edge="1" parent="1" source="ciBfCnPS4qrGMpkKh46U-2" target="ciBfCnPS4qrGMpkKh46U-67">
          <mxGeometry width="50" height="50" relative="1" as="geometry">
            <mxPoint x="320" y="320" as="sourcePoint" />
            <mxPoint x="373" y="213" as="targetPoint" />
          </mxGeometry>
        </mxCell>
        <mxCell id="ciBfCnPS4qrGMpkKh46U-69" value="" style="endArrow=none;html=1;rounded=0;entryX=1;entryY=0.5;entryDx=0;entryDy=0;exitX=0;exitY=0.5;exitDx=0;exitDy=0;" edge="1" parent="1" source="ciBfCnPS4qrGMpkKh46U-67" target="ciBfCnPS4qrGMpkKh46U-3">
          <mxGeometry width="50" height="50" relative="1" as="geometry">
            <mxPoint x="276" y="197" as="sourcePoint" />
            <mxPoint x="230" y="100" as="targetPoint" />
          </mxGeometry>
        </mxCell>
        <mxCell id="ciBfCnPS4qrGMpkKh46U-72" style="edgeStyle=orthogonalEdgeStyle;rounded=0;orthogonalLoop=1;jettySize=auto;html=1;exitX=0.5;exitY=0;exitDx=0;exitDy=0;entryX=0.5;entryY=1;entryDx=0;entryDy=0;" edge="1" parent="1" source="ciBfCnPS4qrGMpkKh46U-70" target="ciBfCnPS4qrGMpkKh46U-71">
          <mxGeometry relative="1" as="geometry" />
        </mxCell>
        <mxCell id="ciBfCnPS4qrGMpkKh46U-70" value="Reserva" style="rounded=1;whiteSpace=wrap;html=1;" vertex="1" parent="1">
          <mxGeometry x="90" y="320" width="120" height="60" as="geometry" />
        </mxCell>
        <mxCell id="ciBfCnPS4qrGMpkKh46U-71" value="&lt;div&gt;&lt;font color=&quot;#ffffff&quot;&gt;data e &lt;br&gt;&lt;/font&gt;&lt;/div&gt;&lt;div&gt;&lt;font color=&quot;#ffffff&quot;&gt;hora&lt;br&gt;&lt;/font&gt;&lt;/div&gt;" style="ellipse;whiteSpace=wrap;html=1;rounded=1;fillColor=#000000;" vertex="1" parent="1">
          <mxGeometry x="125" y="220" width="50" height="50" as="geometry" />
        </mxCell>
        <mxCell id="ciBfCnPS4qrGMpkKh46U-73" value="" style="rhombus;whiteSpace=wrap;html=1;" vertex="1" parent="1">
          <mxGeometry x="-26" y="330" width="46" height="40" as="geometry" />
        </mxCell>
        <mxCell id="ciBfCnPS4qrGMpkKh46U-75" value="" style="endArrow=none;html=1;rounded=0;entryX=0;entryY=0.5;entryDx=0;entryDy=0;exitX=1;exitY=0.5;exitDx=0;exitDy=0;" edge="1" parent="1" source="ciBfCnPS4qrGMpkKh46U-73" target="ciBfCnPS4qrGMpkKh46U-70">
          <mxGeometry width="50" height="50" relative="1" as="geometry">
            <mxPoint x="80" y="490" as="sourcePoint" />
            <mxPoint x="130" y="440" as="targetPoint" />
          </mxGeometry>
        </mxCell>
        <mxCell id="ciBfCnPS4qrGMpkKh46U-76" value="" style="endArrow=none;html=1;rounded=0;entryX=0;entryY=0.5;entryDx=0;entryDy=0;exitX=1;exitY=0.5;exitDx=0;exitDy=0;" edge="1" parent="1" source="ciBfCnPS4qrGMpkKh46U-5" target="ciBfCnPS4qrGMpkKh46U-73">
          <mxGeometry width="50" height="50" relative="1" as="geometry">
            <mxPoint x="-80" y="400" as="sourcePoint" />
            <mxPoint x="-30" y="350" as="targetPoint" />
          </mxGeometry>
        </mxCell>
        <mxCell id="ciBfCnPS4qrGMpkKh46U-82" style="edgeStyle=orthogonalEdgeStyle;rounded=0;orthogonalLoop=1;jettySize=auto;html=1;entryX=0.5;entryY=1;entryDx=0;entryDy=0;" edge="1" parent="1" source="ciBfCnPS4qrGMpkKh46U-77" target="ciBfCnPS4qrGMpkKh46U-81">
          <mxGeometry relative="1" as="geometry" />
        </mxCell>
        <mxCell id="ciBfCnPS4qrGMpkKh46U-77" value="Empréstimo" style="rounded=1;whiteSpace=wrap;html=1;" vertex="1" parent="1">
          <mxGeometry x="900" y="20" width="120" height="60" as="geometry" />
        </mxCell>
        <mxCell id="ciBfCnPS4qrGMpkKh46U-81" value="&lt;div&gt;&lt;font color=&quot;#ffffff&quot;&gt;data e &lt;br&gt;&lt;/font&gt;&lt;/div&gt;&lt;div&gt;&lt;font color=&quot;#ffffff&quot;&gt;hora&lt;br&gt;&lt;/font&gt;&lt;/div&gt;" style="ellipse;whiteSpace=wrap;html=1;rounded=1;fillColor=#000000;" vertex="1" parent="1">
          <mxGeometry x="935" y="-80" width="50" height="50" as="geometry" />
        </mxCell>
        <mxCell id="ciBfCnPS4qrGMpkKh46U-83" value="" style="rhombus;whiteSpace=wrap;html=1;rotation=-10;" vertex="1" parent="1">
          <mxGeometry x="800" y="40" width="46" height="40" as="geometry" />
        </mxCell>
        <mxCell id="ciBfCnPS4qrGMpkKh46U-84" value="" style="endArrow=none;html=1;rounded=0;entryX=0;entryY=0.5;entryDx=0;entryDy=0;exitX=1;exitY=0.5;exitDx=0;exitDy=0;" edge="1" parent="1" source="ciBfCnPS4qrGMpkKh46U-4" target="ciBfCnPS4qrGMpkKh46U-83">
          <mxGeometry width="50" height="50" relative="1" as="geometry">
            <mxPoint x="750" y="290" as="sourcePoint" />
            <mxPoint x="800" y="240" as="targetPoint" />
          </mxGeometry>
        </mxCell>
        <mxCell id="ciBfCnPS4qrGMpkKh46U-85" value="" style="endArrow=none;html=1;rounded=0;entryX=0;entryY=0.5;entryDx=0;entryDy=0;exitX=1;exitY=0.5;exitDx=0;exitDy=0;" edge="1" parent="1" source="ciBfCnPS4qrGMpkKh46U-83" target="ciBfCnPS4qrGMpkKh46U-77">
          <mxGeometry width="50" height="50" relative="1" as="geometry">
            <mxPoint x="750" y="290" as="sourcePoint" />
            <mxPoint x="800" y="240" as="targetPoint" />
          </mxGeometry>
        </mxCell>
        <mxCell id="ciBfCnPS4qrGMpkKh46U-91" style="edgeStyle=orthogonalEdgeStyle;rounded=0;orthogonalLoop=1;jettySize=auto;html=1;exitX=0.5;exitY=1;exitDx=0;exitDy=0;entryX=0.5;entryY=0;entryDx=0;entryDy=0;" edge="1" parent="1" source="ciBfCnPS4qrGMpkKh46U-86" target="ciBfCnPS4qrGMpkKh46U-90">
          <mxGeometry relative="1" as="geometry" />
        </mxCell>
        <mxCell id="ciBfCnPS4qrGMpkKh46U-86" value="Renovação" style="rounded=1;whiteSpace=wrap;html=1;" vertex="1" parent="1">
          <mxGeometry x="1181" y="115" width="120" height="60" as="geometry" />
        </mxCell>
        <mxCell id="ciBfCnPS4qrGMpkKh46U-89" style="edgeStyle=orthogonalEdgeStyle;rounded=0;orthogonalLoop=1;jettySize=auto;html=1;entryX=0.5;entryY=1;entryDx=0;entryDy=0;" edge="1" parent="1" source="ciBfCnPS4qrGMpkKh46U-87" target="ciBfCnPS4qrGMpkKh46U-88">
          <mxGeometry relative="1" as="geometry" />
        </mxCell>
        <mxCell id="ciBfCnPS4qrGMpkKh46U-87" value="Devolução" style="rounded=1;whiteSpace=wrap;html=1;" vertex="1" parent="1">
          <mxGeometry x="1181" y="-85" width="120" height="60" as="geometry" />
        </mxCell>
        <mxCell id="ciBfCnPS4qrGMpkKh46U-88" value="&lt;div&gt;&lt;font color=&quot;#ffffff&quot;&gt;data e &lt;br&gt;&lt;/font&gt;&lt;/div&gt;&lt;div&gt;&lt;font color=&quot;#ffffff&quot;&gt;hora&lt;br&gt;&lt;/font&gt;&lt;/div&gt;" style="ellipse;whiteSpace=wrap;html=1;rounded=1;fillColor=#000000;" vertex="1" parent="1">
          <mxGeometry x="1216" y="-200" width="50" height="50" as="geometry" />
        </mxCell>
        <mxCell id="ciBfCnPS4qrGMpkKh46U-90" value="&lt;div&gt;&lt;font color=&quot;#ffffff&quot;&gt;data e &lt;br&gt;&lt;/font&gt;&lt;/div&gt;&lt;div&gt;&lt;font color=&quot;#ffffff&quot;&gt;hora&lt;br&gt;&lt;/font&gt;&lt;/div&gt;" style="ellipse;whiteSpace=wrap;html=1;rounded=1;fillColor=#000000;" vertex="1" parent="1">
          <mxGeometry x="1216" y="230" width="50" height="50" as="geometry" />
        </mxCell>
        <mxCell id="ciBfCnPS4qrGMpkKh46U-92" value="" style="rhombus;whiteSpace=wrap;html=1;rotation=-10;" vertex="1" parent="1">
          <mxGeometry x="1080" y="-50" width="46" height="40" as="geometry" />
        </mxCell>
        <mxCell id="ciBfCnPS4qrGMpkKh46U-93" value="" style="rhombus;whiteSpace=wrap;html=1;rotation=25;" vertex="1" parent="1">
          <mxGeometry x="1080" y="100" width="46" height="40" as="geometry" />
        </mxCell>
        <mxCell id="ciBfCnPS4qrGMpkKh46U-95" value="" style="endArrow=none;html=1;rounded=0;entryX=0;entryY=0.5;entryDx=0;entryDy=0;exitX=1;exitY=0.5;exitDx=0;exitDy=0;" edge="1" parent="1" source="ciBfCnPS4qrGMpkKh46U-77" target="ciBfCnPS4qrGMpkKh46U-93">
          <mxGeometry width="50" height="50" relative="1" as="geometry">
            <mxPoint x="990" y="230" as="sourcePoint" />
            <mxPoint x="1040" y="180" as="targetPoint" />
          </mxGeometry>
        </mxCell>
        <mxCell id="ciBfCnPS4qrGMpkKh46U-96" value="" style="endArrow=none;html=1;rounded=0;entryX=1;entryY=0.5;entryDx=0;entryDy=0;exitX=0.017;exitY=0.617;exitDx=0;exitDy=0;exitPerimeter=0;" edge="1" parent="1" source="ciBfCnPS4qrGMpkKh46U-86" target="ciBfCnPS4qrGMpkKh46U-93">
          <mxGeometry width="50" height="50" relative="1" as="geometry">
            <mxPoint x="990" y="230" as="sourcePoint" />
            <mxPoint x="1040" y="180" as="targetPoint" />
          </mxGeometry>
        </mxCell>
        <mxCell id="ciBfCnPS4qrGMpkKh46U-97" value="" style="endArrow=none;html=1;rounded=0;entryX=0;entryY=0.5;entryDx=0;entryDy=0;exitX=1;exitY=0;exitDx=0;exitDy=0;" edge="1" parent="1" source="ciBfCnPS4qrGMpkKh46U-77" target="ciBfCnPS4qrGMpkKh46U-92">
          <mxGeometry width="50" height="50" relative="1" as="geometry">
            <mxPoint x="990" y="230" as="sourcePoint" />
            <mxPoint x="1040" y="180" as="targetPoint" />
          </mxGeometry>
        </mxCell>
        <mxCell id="ciBfCnPS4qrGMpkKh46U-98" value="" style="endArrow=none;html=1;rounded=0;entryX=0;entryY=0.5;entryDx=0;entryDy=0;exitX=1;exitY=0.5;exitDx=0;exitDy=0;" edge="1" parent="1" source="ciBfCnPS4qrGMpkKh46U-92" target="ciBfCnPS4qrGMpkKh46U-87">
          <mxGeometry width="50" height="50" relative="1" as="geometry">
            <mxPoint x="990" y="230" as="sourcePoint" />
            <mxPoint x="1040" y="180" as="targetPoint" />
          </mxGeometry>
        </mxCell>
        <mxCell id="ciBfCnPS4qrGMpkKh46U-105" style="edgeStyle=orthogonalEdgeStyle;rounded=0;orthogonalLoop=1;jettySize=auto;html=1;entryX=0.5;entryY=1;entryDx=0;entryDy=0;" edge="1" parent="1" source="ciBfCnPS4qrGMpkKh46U-99" target="ciBfCnPS4qrGMpkKh46U-104">
          <mxGeometry relative="1" as="geometry" />
        </mxCell>
        <mxCell id="ciBfCnPS4qrGMpkKh46U-99" value="Multa" style="rounded=1;whiteSpace=wrap;html=1;" vertex="1" parent="1">
          <mxGeometry x="1520" y="-85" width="120" height="60" as="geometry" />
        </mxCell>
        <mxCell id="ciBfCnPS4qrGMpkKh46U-100" value="" style="rhombus;whiteSpace=wrap;html=1;rotation=0;" vertex="1" parent="1">
          <mxGeometry x="1390" y="-75" width="46" height="40" as="geometry" />
        </mxCell>
        <mxCell id="ciBfCnPS4qrGMpkKh46U-101" value="" style="endArrow=none;html=1;rounded=0;entryX=0;entryY=0.5;entryDx=0;entryDy=0;exitX=1;exitY=0.5;exitDx=0;exitDy=0;" edge="1" parent="1" source="ciBfCnPS4qrGMpkKh46U-87" target="ciBfCnPS4qrGMpkKh46U-100">
          <mxGeometry width="50" height="50" relative="1" as="geometry">
            <mxPoint x="1250" y="230" as="sourcePoint" />
            <mxPoint x="1300" y="180" as="targetPoint" />
          </mxGeometry>
        </mxCell>
        <mxCell id="ciBfCnPS4qrGMpkKh46U-103" value="" style="endArrow=none;html=1;rounded=0;entryX=0;entryY=0.5;entryDx=0;entryDy=0;exitX=1;exitY=0.5;exitDx=0;exitDy=0;" edge="1" parent="1" source="ciBfCnPS4qrGMpkKh46U-100" target="ciBfCnPS4qrGMpkKh46U-99">
          <mxGeometry width="50" height="50" relative="1" as="geometry">
            <mxPoint x="1250" y="230" as="sourcePoint" />
            <mxPoint x="1300" y="180" as="targetPoint" />
          </mxGeometry>
        </mxCell>
        <mxCell id="ciBfCnPS4qrGMpkKh46U-104" value="&lt;div&gt;&lt;font color=&quot;#ffffff&quot;&gt;data e &lt;br&gt;&lt;/font&gt;&lt;/div&gt;&lt;div&gt;&lt;font color=&quot;#ffffff&quot;&gt;hora&lt;br&gt;&lt;/font&gt;&lt;/div&gt;" style="ellipse;whiteSpace=wrap;html=1;rounded=1;fillColor=#000000;" vertex="1" parent="1">
          <mxGeometry x="1555" y="-210" width="50" height="50" as="geometry" />
        </mxCell>
        <mxCell id="ciBfCnPS4qrGMpkKh46U-106" value="" style="rhombus;whiteSpace=wrap;html=1;rotation=0;" vertex="1" parent="1">
          <mxGeometry x="391" y="-160" width="46" height="40" as="geometry" />
        </mxCell>
        <mxCell id="ciBfCnPS4qrGMpkKh46U-107" value="" style="endArrow=none;html=1;rounded=0;exitX=1;exitY=0.5;exitDx=0;exitDy=0;entryX=0.067;entryY=-0.05;entryDx=0;entryDy=0;entryPerimeter=0;" edge="1" parent="1" source="ciBfCnPS4qrGMpkKh46U-106" target="ciBfCnPS4qrGMpkKh46U-77">
          <mxGeometry width="50" height="50" relative="1" as="geometry">
            <mxPoint x="420" y="170" as="sourcePoint" />
            <mxPoint x="470" y="120" as="targetPoint" />
            <Array as="points">
              <mxPoint x="910" y="-140" />
            </Array>
          </mxGeometry>
        </mxCell>
        <mxCell id="ciBfCnPS4qrGMpkKh46U-108" value="" style="endArrow=none;html=1;rounded=0;exitX=0.608;exitY=-0.05;exitDx=0;exitDy=0;exitPerimeter=0;" edge="1" parent="1" source="ciBfCnPS4qrGMpkKh46U-5">
          <mxGeometry width="50" height="50" relative="1" as="geometry">
            <mxPoint x="100" y="170" as="sourcePoint" />
            <mxPoint x="390" y="-140" as="targetPoint" />
            <Array as="points">
              <mxPoint x="-140" y="-140" />
            </Array>
          </mxGeometry>
        </mxCell>
        <mxCell id="ciBfCnPS4qrGMpkKh46U-110" value="1" style="text;html=1;align=center;verticalAlign=middle;whiteSpace=wrap;rounded=0;" vertex="1" parent="1">
          <mxGeometry x="140" y="-170" width="60" height="30" as="geometry" />
        </mxCell>
        <mxCell id="ciBfCnPS4qrGMpkKh46U-112" value="n" style="text;html=1;align=center;verticalAlign=middle;whiteSpace=wrap;rounded=0;" vertex="1" parent="1">
          <mxGeometry x="650" y="-170" width="60" height="30" as="geometry" />
        </mxCell>
        <mxCell id="ciBfCnPS4qrGMpkKh46U-113" value="1" style="text;html=1;align=center;verticalAlign=middle;whiteSpace=wrap;rounded=0;" vertex="1" parent="1">
          <mxGeometry x="230" y="130" width="60" height="30" as="geometry" />
        </mxCell>
        <mxCell id="ciBfCnPS4qrGMpkKh46U-114" value="n" style="text;html=1;align=center;verticalAlign=middle;whiteSpace=wrap;rounded=0;" vertex="1" parent="1">
          <mxGeometry x="315" y="250" width="60" height="30" as="geometry" />
        </mxCell>
        <mxCell id="ciBfCnPS4qrGMpkKh46U-115" value="n" style="text;html=1;align=center;verticalAlign=middle;whiteSpace=wrap;rounded=0;" vertex="1" parent="1">
          <mxGeometry x="294" y="320" width="60" height="30" as="geometry" />
        </mxCell>
        <mxCell id="ciBfCnPS4qrGMpkKh46U-116" value="n" style="text;html=1;align=center;verticalAlign=middle;whiteSpace=wrap;rounded=0;" vertex="1" parent="1">
          <mxGeometry x="210" y="320" width="60" height="30" as="geometry" />
        </mxCell>
        <mxCell id="ciBfCnPS4qrGMpkKh46U-117" value="1" style="text;html=1;align=center;verticalAlign=middle;whiteSpace=wrap;rounded=0;" vertex="1" parent="1">
          <mxGeometry x="-86" y="320" width="60" height="30" as="geometry" />
        </mxCell>
        <mxCell id="ciBfCnPS4qrGMpkKh46U-118" value="n" style="text;html=1;align=center;verticalAlign=middle;whiteSpace=wrap;rounded=0;" vertex="1" parent="1">
          <mxGeometry x="20" y="320" width="60" height="30" as="geometry" />
        </mxCell>
        <mxCell id="ciBfCnPS4qrGMpkKh46U-120" value="n" style="text;html=1;align=center;verticalAlign=middle;whiteSpace=wrap;rounded=0;" vertex="1" parent="1">
          <mxGeometry x="474" y="320" width="60" height="30" as="geometry" />
        </mxCell>
        <mxCell id="ciBfCnPS4qrGMpkKh46U-121" value="n" style="text;html=1;align=center;verticalAlign=middle;whiteSpace=wrap;rounded=0;" vertex="1" parent="1">
          <mxGeometry x="450" y="250" width="60" height="30" as="geometry" />
        </mxCell>
        <mxCell id="ciBfCnPS4qrGMpkKh46U-122" value="n" style="text;html=1;align=center;verticalAlign=middle;whiteSpace=wrap;rounded=0;" vertex="1" parent="1">
          <mxGeometry x="-150" y="400" width="60" height="30" as="geometry" />
        </mxCell>
        <mxCell id="ciBfCnPS4qrGMpkKh46U-123" value="n" style="text;html=1;align=center;verticalAlign=middle;whiteSpace=wrap;rounded=0;" vertex="1" parent="1">
          <mxGeometry x="-150" y="490" width="60" height="30" as="geometry" />
        </mxCell>
        <mxCell id="ciBfCnPS4qrGMpkKh46U-124" value="n" style="text;html=1;align=center;verticalAlign=middle;whiteSpace=wrap;rounded=0;" vertex="1" parent="1">
          <mxGeometry x="490" y="390" width="60" height="30" as="geometry" />
        </mxCell>
        <mxCell id="ciBfCnPS4qrGMpkKh46U-125" value="n" style="text;html=1;align=center;verticalAlign=middle;whiteSpace=wrap;rounded=0;" vertex="1" parent="1">
          <mxGeometry x="550" y="100" width="60" height="30" as="geometry" />
        </mxCell>
        <mxCell id="ciBfCnPS4qrGMpkKh46U-126" value="n" style="text;html=1;align=center;verticalAlign=middle;whiteSpace=wrap;rounded=0;" vertex="1" parent="1">
          <mxGeometry x="740" y="40" width="60" height="30" as="geometry" />
        </mxCell>
        <mxCell id="ciBfCnPS4qrGMpkKh46U-127" value="n" style="text;html=1;align=center;verticalAlign=middle;whiteSpace=wrap;rounded=0;" vertex="1" parent="1">
          <mxGeometry x="846" y="10" width="60" height="30" as="geometry" />
        </mxCell>
        <mxCell id="ciBfCnPS4qrGMpkKh46U-128" value="n" style="text;html=1;align=center;verticalAlign=middle;whiteSpace=wrap;rounded=0;" vertex="1" parent="1">
          <mxGeometry x="1000" y="-35" width="60" height="30" as="geometry" />
        </mxCell>
        <mxCell id="ciBfCnPS4qrGMpkKh46U-129" value="n" style="text;html=1;align=center;verticalAlign=middle;whiteSpace=wrap;rounded=0;" vertex="1" parent="1">
          <mxGeometry x="1121" y="-85" width="60" height="30" as="geometry" />
        </mxCell>
        <mxCell id="ciBfCnPS4qrGMpkKh46U-130" value="1" style="text;html=1;align=center;verticalAlign=middle;whiteSpace=wrap;rounded=0;" vertex="1" parent="1">
          <mxGeometry x="1000" y="85" width="60" height="30" as="geometry" />
        </mxCell>
        <mxCell id="ciBfCnPS4qrGMpkKh46U-131" value="1" style="text;html=1;align=center;verticalAlign=middle;whiteSpace=wrap;rounded=0;" vertex="1" parent="1">
          <mxGeometry x="1120" y="155" width="60" height="30" as="geometry" />
        </mxCell>
        <mxCell id="ciBfCnPS4qrGMpkKh46U-132" value="1" style="text;html=1;align=center;verticalAlign=middle;whiteSpace=wrap;rounded=0;" vertex="1" parent="1">
          <mxGeometry x="1450" y="-90" width="60" height="30" as="geometry" />
        </mxCell>
        <mxCell id="ciBfCnPS4qrGMpkKh46U-133" value="1" style="text;html=1;align=center;verticalAlign=middle;whiteSpace=wrap;rounded=0;" vertex="1" parent="1">
          <mxGeometry x="1320" y="-90" width="60" height="30" as="geometry" />
        </mxCell>
        <mxCell id="ciBfCnPS4qrGMpkKh46U-134" value="1" style="text;html=1;align=center;verticalAlign=middle;whiteSpace=wrap;rounded=0;" vertex="1" parent="1">
          <mxGeometry x="570" y="320" width="60" height="30" as="geometry" />
        </mxCell>
        <mxCell id="ciBfCnPS4qrGMpkKh46U-135" value="1" style="text;html=1;align=center;verticalAlign=middle;whiteSpace=wrap;rounded=0;" vertex="1" parent="1">
          <mxGeometry x="570" y="490" width="60" height="30" as="geometry" />
        </mxCell>
      </root>
    </mxGraphModel>
  </diagram>
</mxfile>
